<?xml version="1.0" standalone="no"?><!DOCTYPE svg PUBLIC "-//W3C//DTD SVG 1.1//EN" "http://www.w3.org/Graphics/SVG/1.1/DTD/svg11.dtd"><svg t="1547542886647" class="icon" style="" viewBox="0 0 1298 1024" version="1.1" xmlns="http://www.w3.org/2000/svg" p-id="5096" xmlns:xlink="http://www.w3.org/1999/xlink" width="253.515625" height="200"><defs><style type="text/css"></style></defs><path d="M1297.066667 955.733333C1297.066667 978.944 1294.813867 1001.608533 1291.605333 1024L346.7264 1024C343.517867 1001.608533 341.333333 978.944 341.333333 955.733333 341.333333 743.697067 479.505067 564.224 670.651733 501.691733 595.831467 453.0176 546.133333 368.981333 546.133333 273.066667 546.133333 122.2656 668.398933 0 819.2 0 970.001067 0 1092.266667 122.2656 1092.266667 273.066667 1092.266667 368.981333 1042.568533 453.0176 967.748267 501.691733 1158.894933 564.224 1297.066667 743.697067 1297.066667 955.733333ZM479.982933 68.266667C367.069867 68.266667 277.2992 160.1536 277.2992 273.066667 277.2992 383.112533 341.333333 472.4736 477.866667 476.9792L477.866667 477.866667 477.866667 545.245867 477.866667 546.133333C252.040533 546.133333 68.266667 750.933333 68.266667 1024L0 1024C0 799.1296 145.2032 574.6688 343.790933 502.306133 266.24 454.0416 209.032533 369.937067 209.032533 273.066667 209.032533 122.2656 327.133867 0 477.934933 0 510.498133 0 541.4912 6.144 570.436267 16.5888L534.528 76.5952C516.9152 71.611733 498.756267 68.266667 479.982933 68.266667Z" p-id="5097"></path></svg>