<?xml version="1.0" standalone="no"?><!DOCTYPE svg PUBLIC "-//W3C//DTD SVG 1.1//EN" "http://www.w3.org/Graphics/SVG/1.1/DTD/svg11.dtd"><svg t="1547542260333" class="icon" style="" viewBox="0 0 1024 1024" version="1.1" xmlns="http://www.w3.org/2000/svg" p-id="703" xmlns:xlink="http://www.w3.org/1999/xlink" width="200" height="200"><defs><style type="text/css"></style></defs><path d="M541.7472 163.1232a51.2 51.2 0 0 0-59.4944 0L166.6048 388.608a5.12 5.12 0 0 0 2.9696 9.2672H230.4a25.6 25.6 0 0 1 25.6 25.6v384a51.2 51.2 0 0 0 51.2 51.2h409.6a51.2 51.2 0 0 0 51.2-51.2v-384a25.6 25.6 0 0 1 25.6-25.6h60.8256a5.12 5.12 0 0 0 2.9696-9.2672l-315.648-225.4848z m290.2528 644.352a115.2 115.2 0 0 1-115.2 115.2H307.2a115.2 115.2 0 0 1-115.2-115.2v-345.6h-22.4256a69.12 69.12 0 0 1-40.192-125.3376l315.648-225.4848a115.2 115.2 0 0 1 133.9392 0l315.648 225.4848a69.12 69.12 0 0 1-40.192 125.3376h-22.4256v345.6z" p-id="704"></path><path d="M332.8 679.4752a51.2 51.2 0 0 1 51.2-51.2h51.2a51.2 51.2 0 0 1 51.2 51.2v51.2a51.2 51.2 0 0 1-51.2 51.2h-51.2a51.2 51.2 0 0 1-51.2-51.2v-51.2z m51.2 0v51.2h51.2v-51.2h-51.2zM537.6 679.4752a51.2 51.2 0 0 1 51.2-51.2h51.2a51.2 51.2 0 0 1 51.2 51.2v51.2a51.2 51.2 0 0 1-51.2 51.2h-51.2a51.2 51.2 0 0 1-51.2-51.2v-51.2z m51.2 0v51.2h51.2v-51.2h-51.2zM537.6 474.6752a51.2 51.2 0 0 1 51.2-51.2h51.2a51.2 51.2 0 0 1 51.2 51.2v51.2a51.2 51.2 0 0 1-51.2 51.2h-51.2a51.2 51.2 0 0 1-51.2-51.2v-51.2z m51.2 0v51.2h51.2v-51.2h-51.2z" p-id="705"></path></svg>