<?xml version="1.0" standalone="no"?><!DOCTYPE svg PUBLIC "-//W3C//DTD SVG 1.1//EN" "http://www.w3.org/Graphics/SVG/1.1/DTD/svg11.dtd"><svg t="1547542295567" class="icon" style="" viewBox="0 0 1024 1024" version="1.1" xmlns="http://www.w3.org/2000/svg" p-id="1522" xmlns:xlink="http://www.w3.org/1999/xlink" width="200" height="200"><defs><style type="text/css"></style></defs><path d="M237.661973 0.056884a237.661973 237.661973 0 0 0 0 475.323945h237.775741V237.718857A237.718857 237.718857 0 0 0 237.718857 0.056884z m786.366469 237.661973a237.661973 237.661973 0 0 0-475.437713 0v237.661972h237.77574a237.661973 237.661973 0 0 0 237.661973-237.661972zM0 786.309585a237.661973 237.661973 0 0 0 475.380829 0V548.647613H237.661973A237.661973 237.661973 0 0 0 0 786.309585z m786.252701-237.661972h-237.775741v237.661972a237.718857 237.718857 0 0 0 475.437714 0 237.548204 237.548204 0 0 0-237.661973-237.661972z" p-id="1523"></path></svg>